<svg id="图层_1" data-name="图层 1" xmlns="http://www.w3.org/2000/svg" viewBox="0 0 40.63 40.51"><defs><style>.cls-1{fill:#fff;}.cls-2{fill:#ff6c00;}</style></defs><title>免费设计</title><path class="cls-1" d="M2.83,42.25H22.19l10-14.38s-2.5-3.75-11.88-4.34c-5.65-.36-14.37,8.12-14.37,8.12Z" transform="translate(-2.18 -2.24)"/><path class="cls-2" d="M42.49,27.83a1.13,1.13,0,0,0,0-1.58h0l-4.36-4.36a1.12,1.12,0,0,0-1.59,0L23.07,35.37a1,1,0,0,0-.31.57h0l-.82,5.71h0v0l-.08.58a.32.32,0,0,0,0,.14.34.34,0,0,0,.31.33v0h0a.28.28,0,0,0,.13,0l6.13-1.1h0a1.1,1.1,0,0,0,.58-.31M27.53,39.2" transform="translate(-2.18 -2.24)"/><path class="cls-2" d="M30.35,26.33a18,18,0,0,0-5.78-2.55,11.19,11.19,0,1,0-8.48,0A18.16,18.16,0,0,0,2.18,41.4a1.27,1.27,0,0,0,2.54,0A15.58,15.58,0,0,1,28.51,28.13ZM11.68,13.43" transform="translate(-2.18 -2.24)"/></svg>