<svg t="1622687865457" class="icon" viewBox="0 0 1024 1024" version="1.1" xmlns="http://www.w3.org/2000/svg" p-id="5478" width="200" height="200"><path d="M529.075399 63.978127c57.933457 0 114.12934 11.343349 167.027108 33.716916 51.101865 21.614274 97.002264 52.5611 136.425136 91.980901 39.421848 39.420825 70.373791 85.319178 91.991134 136.420019 22.376637 52.896744 33.723056 109.09672 33.723056 167.040411 0 57.936527-11.346419 114.12934-33.723056 167.025061-21.618367 51.096748-52.569286 96.992031-91.991134 136.411833-39.422871 39.418778-85.326341 70.365604-136.425136 91.977831-52.894697 22.37152-109.090581 33.715893-167.027108 33.715893-57.936527 0-114.130364-11.343349-167.021991-33.715893-51.096748-21.611204-96.987938-52.555983-136.40774-91.976808-39.416731-39.418778-70.361511-85.313038-91.974761-136.411833-22.369473-52.892651-33.712823-109.087511-33.712823-167.026084 0-57.944713 11.343349-114.145713 33.713846-167.041434 21.61325-51.101865 52.557006-97.000218 91.974761-136.420019 39.418778-39.418778 85.310991-70.366627 136.406716-91.979878C414.945035 75.321476 471.138872 63.978127 529.075399 63.978127M529.075399 43.512003c-248.28683 0-449.583438 201.302749-449.583438 449.624371 0 248.295016 201.296609 449.593671 449.583438 449.593671 248.281713 0 449.635627-201.301725 449.635627-449.593671C978.711026 244.814752 777.357112 43.512003 529.075399 43.512003L529.075399 43.512003z" p-id="5479" fill="#ed701f"></path><path d="M466.261795 635.5632l0-36.916794L439.541223 598.646406l0 36.916794c-41.023322 0-72.206532 0-124.485199 0L315.056024 512.141216l124.485199 0 0 40.769542 26.517957 0L466.05918 444.905906 439.541223 444.905906l0 40.768519L315.056024 485.674425l0-68.961628 77.124542 2.839675 12.623505 0.456395-1.215688-12.524245-6.337335-68.960605 42.290175 0 0 45.331441 26.720571 0 0-45.331441 139.797953 0c-1.724271-14.603603-3.243881-29.410843-4.51278-44.418652L375.244848 294.105365l-8.925277 0-6.489808 6.236028-82.398662 79.558987-6.844895 6.643304 0 9.380648 0 261.84666 0 22.210861 22.209838 0c161.854295 0 76.56684 0 402.861324 0l-14.096043-44.417629C573.759087 635.5632 512.100796 635.5632 466.261795 635.5632zM375.752408 346.585623l4.66423 50.352805-54.763255-2.028193L375.752408 346.585623z" p-id="5480" fill="#ed701f"></path><path d="M775.318686 646.466528l-36.913724 9.026584 0.557702 38.279838 26.822902 31.030737c5.882987-1.316995 11.711739-2.635013 17.645892-3.955078l10.495028-40.715307L775.318686 646.466528z" p-id="5481" fill="#ed701f"></path><path d="M769.943258 532.829398c-26.824949 6.136767-53.647851 12.222369-80.470753 18.307971 11.153014 32.601512 22.310122 65.25726 33.464159 97.809653 20.181645-4.561899 40.362266-9.125845 60.5961-13.68979C778.967796 601.134063 774.507204 567.008848 769.943258 532.829398z" p-id="5482" fill="#ed701f"></path><path d="M524.574898 427.919023l0 26.520003 133.966131 0c6.591115 27.508517 13.792121 54.458309 22.411429 80.216973 29.408797-6.692423 58.920948-13.386892 88.433098-20.080338-10.952446-97.455589-35.596729-186.598862-72.715115-267.372513-28.343535-11.713786-50.096978-4.311189-67.743894 15.363919 4.564969 58.084906 12.67774 113.02417 23.731494 165.352979L524.574898 427.920046z" p-id="5483" fill="#ed701f"></path></svg>