<?xml version="1.0" encoding="utf-8"?>
<!-- Generator: Adobe Illustrator 24.0.1, SVG Export Plug-In . SVG Version: 6.00 Build 0)  -->
<svg version="1.1" id="图层_1" xmlns="http://www.w3.org/2000/svg" xmlns:xlink="http://www.w3.org/1999/xlink" x="0px" y="0px"
	 viewBox="0 0 12 19" style="enable-background:new 0 0 12 19;" xml:space="preserve">
<style type="text/css">
	.st0{fill:url(#SVGID_1_);}
</style>
<linearGradient id="SVGID_1_" gradientUnits="userSpaceOnUse" x1="5.8313" y1="4.6655" x2="6.1385" y2="16.2513">
	<stop  offset="0" style="stop-color:#F08403"/>
	<stop  offset="0.767" style="stop-color:#FE4A02"/>
</linearGradient>
<path class="st0" d="M11.78,10.53c0,0-0.01-0.45-0.16-1.14c-0.39-2.02-1.71-3.6-2.42-4.26C9.12,5.06,9,5.15,9.03,5.25
	c0.17,0.62,0.14,1.39-0.28,1.88C8.69,7.2,8.58,7.17,8.56,7.09C7.63,3.8,5.65,2.75,5.06,2.5C4.98,2.47,4.9,2.53,4.9,2.61
	c0.21,1.94-1.07,4.03-2.38,5.66c-0.06,0.07-0.18,0.09-0.2-0.05C2.16,7.49,2,7.43,1.87,6.59c-0.02-0.1-0.15-0.1-0.18-0.01
	c-0.3,1.15-0.88,1.87-1.31,3.36c-0.02,0.06-0.04,0.13-0.06,0.2c-0.02,0.08-0.04,0.16-0.06,0.24l0.01,0c-0.2,1.15,0,2.94,1.35,4.28
	c1.19,1.23,2.63,1.84,4.39,1.84c3.2,0,5.73-2.25,5.78-5.28C11.8,11.08,11.8,10.68,11.78,10.53z"/>
</svg>
